<svg id="Layer_2" data-name="Layer 2" xmlns="http://www.w3.org/2000/svg" viewBox="0 0 500 500"><defs><style>.cls-1{fill:#fff;}.cls-2{fill:#8fdaff;}.cls-3{fill:#34b1ed;}</style></defs><rect class="cls-1" x="-7.5" y="-6.95" width="518" height="518"/><path class="cls-2" d="M411,339.05c-.11-2.28-1-12.55-1.37-15.16A151.63,151.63,0,0,0,398.36,284a147.33,147.33,0,0,0-9.46-18.11,141.4,141.4,0,0,0-9.18-13.14c-1.25-1.57-2.51-3.07-3.82-4.57a107.17,107.17,0,0,0-10.49-10.79,110.15,110.15,0,0,0-14.36-11.24,93.44,93.44,0,0,0-11.68-6.93,106,106,0,0,0-15.91-6.67,102.64,102.64,0,0,0-12.19-3.27l-.23-.06a1.06,1.06,0,0,0-.46-.07A117.63,117.63,0,0,0,293,207.53c-23.88-.33-45.65,7.26-65,22.62-19.27,15.16-33.18,36.28-40.24,61a126.23,126.23,0,0,0-5,31.44,131.64,131.64,0,0,0,6,44c13.16,42.1,48.61,69.16,84.92,69.16H276a75.81,75.81,0,0,1-4.22,15.69,80.22,80.22,0,0,1-10,18.57c-12,16.47-33.34,32.68-71.36,39.48h320C453.93,479,414,414.49,411,339.05Z"/><path class="cls-3" d="M237.51,246c14.9-11.82,31.62-18.18,49.79-19a92.22,92.22,0,0,1,17.54.76c1.2.15,2.4.34,3.64.53a87.54,87.54,0,0,1,9.31,2.37,95.33,95.33,0,0,1,15.9,6.6A103.1,103.1,0,0,1,359.84,257a103.17,103.17,0,0,1,10.59,12.67A121.6,121.6,0,0,1,383.64,293a133.16,133.16,0,0,1,10.27,42.08c0,.74,0,1.48,0,2.23a.16.16,0,0,1,.05.14c2.15,71.36,34.41,134.05,82.6,172h33.94C454,479,414,414.45,411,339c-.09-2.25-1-12.55-1.36-15.13A152.56,152.56,0,0,0,398.37,284a139.76,139.76,0,0,0-9.48-18.13,130.44,130.44,0,0,0-9.14-13.15c-1.25-1.56-2.53-3.08-3.81-4.56a115.81,115.81,0,0,0-10.51-10.82,122.11,122.11,0,0,0-14.36-11.24,106.3,106.3,0,0,0-11.67-6.93,107.45,107.45,0,0,0-15.94-6.65,98,98,0,0,0-12.2-3.27l-.21,0a1.44,1.44,0,0,0-.46-.05A113,113,0,0,0,293,207.54c-23.83-.34-45.64,7.26-65,22.59s-33.15,36.26-40.26,61a129.05,129.05,0,0,0-5,31.41,132.12,132.12,0,0,0,6,44.05c13.16,42.05,48.62,69.15,84.92,69.15.83,0,1.65,0,2.48-.05A81.17,81.17,0,0,1,261.89,470c-12,16.47-33.39,32.67-71.39,39.52h54.65A102.93,102.93,0,0,0,282,470.09a93,93,0,0,0,13.86-2.23c.67-.17,1.34-.35,2-.55l.12.32a112.49,112.49,0,0,1-29,41.84H294a132.94,132.94,0,0,0,13-19.85q4.47,10.11,9.45,19.85h19.94a353.47,353.47,0,0,1-22.1-48l.22-.09A91.11,91.11,0,0,0,326,455.12a336.84,336.84,0,0,0,25.88,54.35h20.81a314.93,314.93,0,0,1-32.28-65.18l.2-.16a111.26,111.26,0,0,0,10.2-10.38,299.15,299.15,0,0,0,38.4,75.72H411.6a277.54,277.54,0,0,1-48.21-93,2.46,2.46,0,0,0,.17-.27c.5-.8,1-1.61,1.45-2.42a118.82,118.82,0,0,0,7.24-14.72c10.58,42.41,30.63,80.25,57.33,110.39H455c-40.64-38.4-68.1-94.46-73.28-157.9,0-.17,0-.34,0-.51,0-.9,0-1.8,0-2.71,0-2.94-.16-5.88-.45-8.82a127.29,127.29,0,0,0-3.81-22.41,120,120,0,0,0-10.64-26.86,99.88,99.88,0,0,0-10.63-15.9,92.21,92.21,0,0,0-14.49-14.47,88.28,88.28,0,0,0-11.71-8c-1.57-.9-3.19-1.71-4.84-2.51l-.13-.05a84.47,84.47,0,0,0-11-4.18,74,74,0,0,0-12.87-2.75,67.92,67.92,0,0,0-17.55-.19,73.92,73.92,0,0,0-38.82,16.47l-.08.09c-22.72,18.75-34.27,47.13-31.58,77.89v.09c2,20.17,10.23,37.83,23.22,49.74,12.66,11.63,28.68,17,43.91,14.72a.13.13,0,0,0,.12-.05,44.64,44.64,0,0,0,16.31-5.79,49.76,49.76,0,0,0,11.71-9.49,55.91,55.91,0,0,0,5.83-7.6l.29-.52a61,61,0,0,0,7.45-23.35,51.13,51.13,0,0,0-.83-16.71v-.09A39.87,39.87,0,0,0,308.52,316l-.16-.14a32.85,32.85,0,0,0-3.89-2.8,28.37,28.37,0,0,0-12.87-4.37,20.29,20.29,0,0,0-10.93,2,18.22,18.22,0,0,0-6.37,5.32,17.91,17.91,0,0,0-3.68,9.73c-.46,5.55,1.53,8.59,3.51,11.25,1.78,2.42,3.61,4.55,3.48,8.11a4.89,4.89,0,0,1-3.06,4.18c-2.24.81-5.79-.24-10.64-6.26l-.08-.15c-7.2-8.92-4.84-22.11-.62-30.75a34.24,34.24,0,0,1,12-12.39,31.21,31.21,0,0,1,17.38-4.37,22.15,22.15,0,0,1,2.57.15,42.21,42.21,0,0,1,10.3,3.13,45.29,45.29,0,0,1,16.14,11.91,48.91,48.91,0,0,1,6.7,9.73,62.65,62.65,0,0,1,6,19.94,60.32,60.32,0,0,1,.57,11.58v0a73.1,73.1,0,0,1-3.55,19.46,71.86,71.86,0,0,1-5.92,13.39,67.14,67.14,0,0,1-14.11,17.37,58.55,58.55,0,0,1-11.76,8c-1.49.76-3,1.47-4.51,2.09a56.75,56.75,0,0,1-11.83,3.32c-32.53,5.6-66.67-17.47-78.63-55.53a110.55,110.55,0,0,1-4.93-39.11C201.26,291.64,214.67,264.11,237.51,246Zm56,186.85.22-.07c2.27-.67,4.53-1.44,6.78-2.35,1.2-.47,2.36-1,3.52-1.52a69.4,69.4,0,0,0,11.79-7,79.07,79.07,0,0,0,14.32-13.34,86.12,86.12,0,0,0,10.18-14.9,90.58,90.58,0,0,0,6.74-15.57,93.54,93.54,0,0,0,4.68-27.24,84.66,84.66,0,0,0-.54-11.73v-.09a85.13,85.13,0,0,0-8.4-28.43l-.12-.29a72.5,72.5,0,0,0-7.2-11,65.49,65.49,0,0,0-11.92-11.63,62,62,0,0,0-16-8.68,56.76,56.76,0,0,0-10.18-2.71l-.41,0c-.74-.09-1.49-.14-2.23-.19a46.48,46.48,0,0,0-17.43,2c-11.67,3.56-21.68,11.77-28.43,23.73l-.25.47c-9.39,18.85-8.31,39.87,2.69,53.64,7.12,9.11,16,13.47,24.54,12.57a23.44,23.44,0,0,0,11.14-4.46l.53-.43c.34-.28.63-.52.91-.71a12.92,12.92,0,0,0,3.61-4.51c3.06-5.93,3-14.57-.58-18.32l-.38-.42c-6-6.51-3.89-10.83-.12-11.49a7.92,7.92,0,0,1,7.32,3.23,30.27,30.27,0,0,1,6.09,13.33,33.92,33.92,0,0,1,.41,7.93A34.49,34.49,0,0,1,300.5,367a38.29,38.29,0,0,1-6.83,7.88,30.51,30.51,0,0,1-15.6,7.16c-.21.05-.46.05-.67.1-10.55,1.37-21.68-2.57-30.58-10.73-12.12-11.11-15.89-26.1-16.92-36.73-2.11-24,6.66-45.33,24.58-60.19a59.78,59.78,0,0,1,25.2-12.15,58.15,58.15,0,0,1,17.46-1A59.21,59.21,0,0,1,310,264a61.16,61.16,0,0,1,8.65,3.27,71.62,71.62,0,0,1,19.12,13.62,82.77,82.77,0,0,1,14.69,19.51,98.94,98.94,0,0,1,8.82,22.3,111.77,111.77,0,0,1,3,16.43,108.63,108.63,0,0,1,.62,11.53v.14c0,.86,0,1.71,0,2.56a105.7,105.7,0,0,1-7.7,37.12A103.79,103.79,0,0,1,351,403.12a111.78,111.78,0,0,1-6.2,9.59A99.82,99.82,0,0,1,334.43,425a92.81,92.81,0,0,1-14.36,11.91,82.61,82.61,0,0,1-11.75,6.64,81.32,81.32,0,0,1-16.27,5.65c-.62.14-1.2.29-1.82.38A102.94,102.94,0,0,0,293.54,432.88Z"/><path class="cls-1" d="M217.3,228.3a21.42,21.42,0,1,1-21.42-21.42A21.42,21.42,0,0,1,217.3,228.3Z"/><path class="cls-3" d="M195.88,255.43A27.13,27.13,0,1,1,223,228.3,27.15,27.15,0,0,1,195.88,255.43Zm0-42.85A15.73,15.73,0,1,0,211.6,228.3,15.74,15.74,0,0,0,195.88,212.58Z"/><path class="cls-1" d="M195.56,262.53a16,16,0,1,1-16-16A16,16,0,0,1,195.56,262.53Z"/><path class="cls-3" d="M179.56,284.23a21.7,21.7,0,1,1,21.7-21.7A21.72,21.72,0,0,1,179.56,284.23Zm0-32a10.3,10.3,0,1,0,10.3,10.3A10.31,10.31,0,0,0,179.56,252.23Z"/><circle class="cls-1" cx="229.62" cy="212.66" r="16"/><path class="cls-3" d="M229.62,234.36a21.7,21.7,0,1,1,21.7-21.7A21.73,21.73,0,0,1,229.62,234.36Zm0-32a10.3,10.3,0,1,0,10.3,10.3A10.31,10.31,0,0,0,229.62,202.36Z"/><path class="cls-1" d="M191.93,303a26.59,26.59,0,1,1-26.58-26.59A26.58,26.58,0,0,1,191.93,303Z"/><path class="cls-3" d="M165.35,335.32A32.29,32.29,0,1,1,197.64,303,32.32,32.32,0,0,1,165.35,335.32Zm0-53.17A20.89,20.89,0,1,0,186.24,303,20.91,20.91,0,0,0,165.35,282.15Z"/><path class="cls-1" d="M191.82,353.71A21.75,21.75,0,1,1,170.08,332,21.74,21.74,0,0,1,191.82,353.71Z"/><path class="cls-3" d="M170.07,381.16a27.45,27.45,0,1,1,27.45-27.45A27.49,27.49,0,0,1,170.07,381.16Zm0-43.49a16,16,0,1,0,16.05,16A16.06,16.06,0,0,0,170.07,337.67Z"/><path class="cls-1" d="M213.63,376.08A13.68,13.68,0,1,1,200,362.4,13.68,13.68,0,0,1,213.63,376.08Z"/><path class="cls-3" d="M200,395.46a19.38,19.38,0,1,1,19.37-19.38A19.4,19.4,0,0,1,200,395.46Zm0-27.36a8,8,0,1,0,8,8A8,8,0,0,0,200,368.1Z"/><path class="cls-1" d="M235.76,394.4a11.07,11.07,0,1,1-11.07-11.07A11.07,11.07,0,0,1,235.76,394.4Z"/><path class="cls-3" d="M224.69,411.16a16.77,16.77,0,1,1,16.76-16.76A16.78,16.78,0,0,1,224.69,411.16Zm0-22.13a5.37,5.37,0,1,0,5.37,5.37A5.38,5.38,0,0,0,224.69,389Z"/><path class="cls-3" d="M107.5,213.37a20.9,20.9,0,1,1-20.9-20.9A20.9,20.9,0,0,1,107.5,213.37Z"/><path class="cls-1" d="M78.89,212.66c0,3.79-2.18,6.86-4.87,6.86s-4.87-3.07-4.87-6.86,2.18-6.87,4.87-6.87S78.89,208.87,78.89,212.66Z"/><path class="cls-3" d="M158.9,201.18a16.27,16.27,0,1,1-16.27-16.26A16.26,16.26,0,0,1,158.9,201.18Z"/><path class="cls-1" d="M136.62,200.63c0,3-1.69,5.34-3.78,5.34s-3.79-2.39-3.79-5.34,1.69-5.35,3.79-5.35S136.62,197.68,136.62,200.63Z"/><path class="cls-3" d="M104.3,305.26a12.71,12.71,0,1,1-12.71-12.71A12.7,12.7,0,0,1,104.3,305.26Z"/><path class="cls-1" d="M86.9,304.83c0,2.3-1.33,4.17-3,4.17s-3-1.87-3-4.17,1.32-4.18,3-4.18S86.9,302.52,86.9,304.83Z"/><path class="cls-3" d="M137,255.64a15.76,15.76,0,1,1-15.75-15.75A15.75,15.75,0,0,1,137,255.64Z"/><path class="cls-1" d="M115.45,255.1c0,2.86-1.64,5.18-3.67,5.18s-3.67-2.32-3.67-5.18,1.64-5.17,3.67-5.17S115.45,252.24,115.45,255.1Z"/><circle class="cls-3" cx="123.65" cy="389.76" r="15.75"/><path class="cls-1" d="M117.83,389.22c0,2.86-1.64,5.18-3.67,5.18s-3.67-2.32-3.67-5.18,1.65-5.17,3.67-5.17S117.83,386.36,117.83,389.22Z"/><path class="cls-3" d="M133.64,345.31a10,10,0,1,1-10-10A10,10,0,0,1,133.64,345.31Z"/><path class="cls-1" d="M120,345c0,1.81-1,3.28-2.32,3.28s-2.33-1.47-2.33-3.28,1-3.28,2.33-3.28S120,343.16,120,345Z"/><circle class="cls-3" cx="69.15" cy="263.49" r="7.85"/><path class="cls-1" d="M66.25,263.22c0,1.43-.82,2.58-1.83,2.58s-1.83-1.15-1.83-2.58.82-2.58,1.83-2.58S66.25,261.8,66.25,263.22Z"/><path class="cls-3" d="M88.83,353.71A7.85,7.85,0,1,1,81,345.86,7.85,7.85,0,0,1,88.83,353.71Z"/><ellipse class="cls-1" cx="76.25" cy="353.44" rx="1.83" ry="2.58"/></svg>