<svg xmlns="http://www.w3.org/2000/svg" viewBox="0 0 169.12 169.12"><defs><style>.cls-1{isolation:isolate;}.cls-2{fill:#fff;}.cls-3{fill:#75a2a3;}.cls-4{fill:#2d6873;}.cls-5{opacity:0.5;mix-blend-mode:multiply;}.cls-6{fill:#134157;}.cls-7{fill:#b7d3db;}</style></defs><g class="cls-1"><g id="Ñëîé_1" data-name="Ñëîé 1"><rect class="cls-2" x="-12.5" y="-9.01" width="198.53" height="188.86"/><rect class="cls-3" x="53.77" y="57.17" width="61.91" height="59.79"/><rect class="cls-4" x="53.77" y="84.8" width="61.91" height="4.53"/><rect class="cls-4" x="53.77" y="77.25" width="61.91" height="4.53"/><rect class="cls-4" x="53.77" y="69.7" width="61.91" height="4.53"/><rect class="cls-4" x="53.77" y="62.14" width="61.91" height="4.53"/><rect class="cls-4" x="53.77" y="92.35" width="61.91" height="4.53"/><rect class="cls-4" x="53.77" y="99.9" width="61.91" height="4.53"/><rect class="cls-4" x="53.77" y="107.45" width="61.91" height="4.53"/><g class="cls-5"><rect class="cls-3" x="56.83" y="57.17" width="44.61" height="17.05"/></g><path class="cls-4" d="M139.54,54.74H115.68v64.64h23.86a11.93,11.93,0,0,0,11.93-11.93V66.67A11.93,11.93,0,0,0,139.54,54.74Z"/><rect class="cls-4" x="60.41" y="43.41" width="37.45" height="25.54"/><polygon class="cls-4" points="88.8 37.37 69.47 37.37 60.41 43.41 97.86 43.41 88.8 37.37"/><path class="cls-6" d="M91.22,52.63a6.5,6.5,0,1,0-6.49,6.49A6.5,6.5,0,0,0,91.22,52.63Z"/><path class="cls-3" d="M14.66,85.24H39.87a1.82,1.82,0,0,1,0,3.64H14.66a1.82,1.82,0,0,1,0-3.64Z"/><g class="cls-5"><rect class="cls-3" x="104.81" y="57.17" width="10.87" height="59.79"/></g><rect class="cls-4" x="44.94" y="54.74" width="8.83" height="64.64"/><rect class="cls-4" x="36.1" y="59.12" width="8.83" height="55.88"/><polygon class="cls-4" points="27.27 100.65 36.1 109.71 36.1 64.41 27.27 73.47 27.27 100.65"/><g class="cls-5"><rect class="cls-3" x="41.54" y="59.12" width="3.4" height="55.88"/></g><g class="cls-5"><polygon class="cls-3" points="36.1 64.41 33.27 67.31 33.27 106.81 36.1 109.71 36.1 64.41"/></g><rect class="cls-7" x="63.74" y="104.42" width="25.37" height="12.53"/><rect class="cls-7" x="54.98" y="116.95" width="42.89" height="4.86"/><circle class="cls-3" cx="70.98" cy="110.69" r="2.49"/><circle class="cls-3" cx="81.86" cy="110.69" r="2.49"/></g></g></svg>