<svg id="Layer_3" data-name="Layer 3" xmlns="http://www.w3.org/2000/svg" viewBox="0 0 200 200"><defs><style>.cls-1,.cls-7{fill:#fff;}.cls-2{fill:#797978;}.cls-3{fill:#e2e2e2;}.cls-4{fill:#575756;}.cls-5{fill:#b2b2b2;}.cls-6{fill:#979696;}.cls-7{opacity:0.3;}</style></defs><rect class="cls-1" x="-10.79" y="-8.97" width="223.02" height="223.02"/><circle class="cls-2" cx="106.22" cy="104.68" r="67.2" transform="translate(-42.91 105.77) rotate(-45)"/><path class="cls-2" d="M161.23,96.84a55.59,55.59,0,0,0-47.17-47.17V44H98.38v5.72A55.59,55.59,0,0,0,51.21,96.84H45.5v15.68h5.71a55.6,55.6,0,0,0,47.17,47.17v5.69h15.68v-5.69a55.6,55.6,0,0,0,47.17-47.17h5.69V96.84Z"/><circle class="cls-3" cx="106.22" cy="104.68" r="67.2" transform="translate(-42.91 105.77) rotate(-45)"/><path class="cls-2" d="M161.23,96.84a55.59,55.59,0,0,0-47.17-47.17V44H98.38v5.72A55.59,55.59,0,0,0,51.21,96.84H45.5v15.68h5.71a55.6,55.6,0,0,0,47.17,47.17v5.69h15.68v-5.69a55.6,55.6,0,0,0,47.17-47.17h5.69V96.84Z"/><path class="cls-4" d="M157.55,104.67a51.31,51.31,0,0,1-44.09,50.83,51.64,51.64,0,0,1-14.48,0,51.31,51.31,0,0,1-44.09-50.83,50.64,50.64,0,0,1,.51-7.23A51.37,51.37,0,0,1,99,53.85a52.67,52.67,0,0,1,14.48,0A51.37,51.37,0,0,1,157,97.44,50.64,50.64,0,0,1,157.55,104.67Z"/><rect class="cls-5" x="26.59" y="92.41" width="121.43" height="15.68" transform="translate(-13.45 13.53) rotate(-8.23)"/><rect class="cls-5" x="79.48" y="39.53" width="15.68" height="121.43" transform="matrix(0.99, -0.14, 0.14, 0.99, -13.45, 13.53)"/><circle class="cls-5" cx="87.3" cy="100.14" r="55.32" transform="translate(-31.22 160.16) rotate(-75.78)"/><circle class="cls-2" cx="87.3" cy="100.14" r="46.86" transform="translate(-42.59 72.23) rotate(-36.79)"/><rect class="cls-6" x="49.88" y="111.33" width="5.87" height="5.87" transform="translate(-15.81 8.74) rotate(-8.23)"/><rect class="cls-6" x="61.41" y="127.93" width="5.87" height="5.87" transform="translate(-18.06 10.56) rotate(-8.23)"/><rect class="cls-6" x="48.59" y="102.39" width="5.87" height="5.87" transform="translate(-14.54 8.46) rotate(-8.23)"/><rect class="cls-6" x="47.29" y="93.44" width="5.87" height="5.87" transform="translate(-13.28 8.18) rotate(-8.23)"/><rect class="cls-6" x="53.65" y="74.25" width="5.87" height="5.87" transform="translate(-10.47 8.89) rotate(-8.23)"/><rect class="cls-6" x="57.53" y="101.09" width="5.87" height="5.86" transform="translate(-14.27 9.73) rotate(-8.23)"/><rect class="cls-6" x="58.82" y="110.04" width="5.87" height="5.87" transform="translate(-15.53 10) rotate(-8.23)"/><rect class="cls-6" x="56.24" y="92.15" width="5.87" height="5.87" transform="translate(-13 9.45) rotate(-8.23)"/><rect class="cls-6" x="54.94" y="83.2" width="5.87" height="5.87" transform="translate(-11.73 9.17) rotate(-8.23)"/><rect class="cls-6" x="60.12" y="118.98" width="5.87" height="5.87" transform="matrix(0.99, -0.14, 0.14, 0.99, -16.8, 10.28)"/><path class="cls-6" d="M77.07,135.19l-5.81.84.64,4.41c1,.38,2,.69,3,1l3-.43Z"/><rect class="cls-6" x="88.25" y="124.05" width="5.86" height="5.87" transform="translate(-17.24 14.36) rotate(-8.23)"/><rect class="cls-6" x="86.96" y="115.1" width="5.87" height="5.87" transform="translate(-15.97 14.08) rotate(-8.23)"/><path class="cls-6" d="M52.25,89.91l-.84-5.81-4.4.64c-.38,1-.69,2-1,3l.44,3Z"/><rect class="cls-6" x="85.66" y="106.16" width="5.87" height="5.87" transform="translate(-14.7 13.8) rotate(-8.23)"/><path class="cls-6" d="M57.43,125.69l-.84-5.8-5.81.84.44,3c.58.88,1.16,1.75,1.8,2.58Z"/><rect class="cls-6" x="62.6" y="72.96" width="5.87" height="5.87" transform="translate(-10.19 10.16) rotate(-8.23)"/><rect class="cls-6" x="79.3" y="125.34" width="5.87" height="5.87" transform="translate(-17.51 13.09) rotate(-8.23)"/><path class="cls-6" d="M67.56,69.43l-.84-5.81-3,.44c-.88.58-1.75,1.16-2.58,1.8l.63,4.41Z"/><rect class="cls-6" x="75.42" y="98.5" width="5.87" height="5.87" transform="translate(-13.71 12.26) rotate(-8.23)"/><rect class="cls-6" x="78.01" y="116.4" width="5.87" height="5.87" transform="translate(-16.25 12.81) rotate(-8.23)"/><rect class="cls-6" x="76.72" y="107.45" width="5.87" height="5.87" transform="translate(-14.98 12.54) rotate(-8.23)"/><path class="cls-6" d="M107.05,130.86l.84,5.8,3-.43c.88-.58,1.75-1.17,2.58-1.8l-.64-4.41Z"/><rect class="cls-6" x="80.6" y="134.29" width="5.87" height="5.87" transform="translate(-18.78 13.37) rotate(-8.23)"/><rect class="cls-6" x="66.48" y="99.8" width="5.87" height="5.87" transform="translate(-13.99 10.99) rotate(-8.23)"/><rect class="cls-6" x="67.77" y="108.74" width="5.87" height="5.87" transform="translate(-15.26 11.27) rotate(-8.23)"/><rect class="cls-6" x="63.89" y="81.91" width="5.86" height="5.87" transform="translate(-11.45 10.44) rotate(-8.23)"/><rect class="cls-6" x="70.36" y="126.64" width="5.87" height="5.87" transform="translate(-17.79 11.82) rotate(-8.23)"/><rect class="cls-6" x="74.13" y="89.56" width="5.87" height="5.87" transform="translate(-12.45 11.98) rotate(-8.23)"/><rect class="cls-6" x="65.18" y="90.85" width="5.87" height="5.87" transform="translate(-12.72 10.72) rotate(-8.23)"/><rect class="cls-6" x="72.84" y="80.61" width="5.87" height="5.87" transform="matrix(0.99, -0.14, 0.14, 0.99, -11.18, 11.71)"/><rect class="cls-6" x="71.54" y="71.66" width="5.87" height="5.87" transform="translate(-9.91 11.43) rotate(-8.23)"/><rect class="cls-6" x="69.07" y="117.69" width="5.87" height="5.87" transform="translate(-16.52 11.55) rotate(-8.23)"/><rect class="cls-6" x="70.25" y="62.72" width="5.87" height="5.87" transform="translate(-8.64 11.15) rotate(-8.23)"/><rect class="cls-6" x="95.9" y="113.81" width="5.87" height="5.87" transform="translate(-15.69 15.35) rotate(-8.23)"/><rect class="cls-6" x="103.56" y="103.57" width="5.87" height="5.87" transform="translate(-14.15 16.34) rotate(-8.23)"/><rect class="cls-6" x="90.73" y="78.02" width="5.87" height="5.87" transform="translate(-10.62 14.24) rotate(-8.23)"/><rect class="cls-6" x="93.32" y="95.92" width="5.87" height="5.86" transform="translate(-13.16 14.8) rotate(-8.23)"/><rect class="cls-6" x="92.02" y="86.97" width="5.87" height="5.87" transform="translate(-11.89 14.52) rotate(-8.23)"/><rect class="cls-6" x="94.61" y="104.86" width="5.87" height="5.87" transform="translate(-14.43 15.07) rotate(-8.23)"/><rect class="cls-6" x="100.97" y="85.68" width="5.86" height="5.87" transform="translate(-11.61 15.79) rotate(-8.23)"/><rect class="cls-6" x="102.26" y="94.62" width="5.87" height="5.87" transform="translate(-12.88 16.06) rotate(-8.23)"/><rect class="cls-6" x="99.68" y="76.73" width="5.87" height="5.87" transform="translate(-10.35 15.51) rotate(-8.23)"/><rect class="cls-6" x="97.2" y="122.75" width="5.87" height="5.87" transform="matrix(0.99, -0.14, 0.14, 0.99, -16.96, 15.63)"/><rect class="cls-6" x="98.38" y="67.78" width="5.87" height="5.87" transform="translate(-9.08 15.23) rotate(-8.23)"/><rect class="cls-6" x="98.49" y="131.7" width="5.87" height="5.87" transform="translate(-18.22 15.9) rotate(-8.23)"/><path class="cls-6" d="M122.35,110.38l.84,5.8,4.41-.63c.37-1,.69-2,1-3l-.43-3Z"/><rect class="cls-6" x="88.14" y="60.13" width="5.87" height="5.87" transform="translate(-8.09 13.68) rotate(-8.23)"/><rect class="cls-6" x="89.43" y="69.08" width="5.87" height="5.87" transform="translate(-9.36 13.96) rotate(-8.23)"/><rect class="cls-6" x="84.37" y="97.21" width="5.87" height="5.87" transform="translate(-13.44 13.53) rotate(-8.23)"/><path class="cls-6" d="M123.39,76.55c-.58-.89-1.17-1.76-1.81-2.59l-4.4.63L118,80.4l5.8-.84Z"/><rect class="cls-6" x="89.55" y="133" width="5.87" height="5.87" transform="translate(-18.5 14.63) rotate(-8.23)"/><rect class="cls-6" x="120.16" y="92.04" width="5.87" height="5.87" transform="translate(-12.33 18.6) rotate(-8.23)"/><rect class="cls-6" x="118.86" y="83.09" width="5.87" height="5.87" transform="translate(-11.06 18.32) rotate(-8.23)"/><rect class="cls-6" x="121.45" y="100.98" width="5.87" height="5.87" transform="translate(-13.59 18.87) rotate(-8.23)"/><rect class="cls-6" x="81.78" y="79.32" width="5.87" height="5.87" transform="translate(-10.9 12.97) rotate(-8.23)"/><rect class="cls-6" x="83.08" y="88.26" width="5.87" height="5.87" transform="translate(-12.17 13.25) rotate(-8.23)"/><rect class="cls-6" x="79.2" y="61.43" width="5.87" height="5.87" transform="translate(-8.37 12.42) rotate(-8.23)"/><rect class="cls-6" x="80.49" y="70.37" width="5.87" height="5.87" transform="translate(-9.63 12.69) rotate(-8.23)"/><rect class="cls-6" x="106.14" y="121.46" width="5.86" height="5.87" transform="translate(-16.68 16.89) rotate(-8.23)"/><rect class="cls-6" x="107.33" y="66.49" width="5.87" height="5.87" transform="translate(-8.8 16.5) rotate(-8.23)"/><rect class="cls-6" x="109.91" y="84.38" width="5.87" height="5.87" transform="matrix(0.99, -0.14, 0.14, 0.99, -11.34, 17.05)"/><path class="cls-6" d="M97.54,65.09l5.8-.84-.63-4.4c-1-.38-2-.69-3-1l-3,.44Z"/><rect class="cls-6" x="104.85" y="112.52" width="5.87" height="5.87" transform="translate(-15.41 16.61) rotate(-8.23)"/><rect class="cls-6" x="115.09" y="120.17" width="5.87" height="5.87" transform="translate(-16.4 18.16) rotate(-8.23)"/><rect class="cls-6" x="113.8" y="111.22" width="5.87" height="5.87" transform="translate(-15.14 17.88) rotate(-8.23)"/><rect class="cls-6" x="111.21" y="93.33" width="5.87" height="5.87" transform="matrix(0.99, -0.14, 0.14, 0.99, -12.6, 17.33)"/><rect class="cls-6" x="108.62" y="75.44" width="5.87" height="5.87" transform="translate(-10.07 16.77) rotate(-8.23)"/><rect class="cls-6" x="112.5" y="102.27" width="5.87" height="5.87" transform="translate(-13.87 17.61) rotate(-8.23)"/><path class="cls-7" d="M51.28,110.49C47.93,85.35,63.57,62,86.45,57.28a36.31,36.31,0,0,0-8.1.36C57,61,42.19,82.55,45.27,105.77A43.07,43.07,0,0,0,61,134.09,48.73,48.73,0,0,1,51.28,110.49Z"/></svg>