<svg id="Layer_2" data-name="Layer 2" xmlns="http://www.w3.org/2000/svg" viewBox="0 0 500 500"><defs><style>.cls-1{fill:#fff;}.cls-2{fill:#8fdaff;}.cls-3{fill:#34b1ed;}</style></defs><rect class="cls-1" x="-7.5" y="-6.95" width="518" height="518"/><rect class="cls-2" x="-7.5" y="247.23" width="518" height="262.24"/><path class="cls-3" d="M510.5,278.22c-24.12,0-36.79-9.1-48-17.13-10.36-7.44-19.3-13.86-38.32-13.86s-28,6.42-38.33,13.86c-11.18,8-23.85,17.13-48,17.13s-36.81-9.1-48-17.13c-10.35-7.44-19.3-13.86-38.34-13.86s-28,6.42-38.33,13.86c-11.19,8-23.86,17.13-48,17.13s-36.82-9.1-48-17.13c-10.36-7.44-19.31-13.86-38.35-13.86s-28,6.42-38.37,13.86c-11.19,8-23.87,17.13-48,17.13v-31c19.05,0,28-6.42,38.36-13.86,11.19-8,23.87-17.13,48-17.13s36.81,9.1,48,17.13c10.37,7.44,19.32,13.86,38.36,13.86s28-6.42,38.34-13.86c11.18-8,23.85-17.13,48-17.13s36.81,9.1,48,17.13c10.35,7.44,19.3,13.86,38.34,13.86s28-6.42,38.33-13.86c11.18-8,23.85-17.13,48-17.13s36.79,9.1,48,17.13c10.36,7.44,19.29,13.86,38.32,13.86Z"/><path class="cls-3" d="M510.5,348c-24.12,0-36.79-9.1-48-17.13-10.36-7.44-19.3-13.86-38.32-13.86s-28,6.42-38.33,13.86c-11.18,8-23.85,17.13-48,17.13s-36.81-9.1-48-17.13C279.55,323.38,270.6,317,251.56,317s-28,6.42-38.33,13.86c-11.19,8-23.86,17.13-48,17.13s-36.82-9.1-48-17.13C106.87,323.38,97.92,317,78.88,317s-28,6.42-38.37,13.86c-11.19,8-23.87,17.13-48,17.13V317c19.05,0,28-6.42,38.36-13.86,11.19-8,23.87-17.13,48-17.13s36.81,9.1,48,17.13C137.25,310.54,146.2,317,165.24,317s28-6.42,38.34-13.86c11.18-8,23.85-17.13,48-17.13s36.81,9.1,48,17.13c10.35,7.44,19.3,13.86,38.34,13.86s28-6.42,38.33-13.86c11.18-8,23.85-17.13,48-17.13s36.79,9.1,48,17.13C482.54,310.54,491.47,317,510.5,317Z"/><path class="cls-3" d="M510.5,417.68c-24.12,0-36.79-9.1-48-17.13-10.36-7.44-19.3-13.86-38.32-13.86s-28,6.42-38.33,13.86c-11.18,8-23.85,17.13-48,17.13s-36.81-9.1-48-17.13c-10.35-7.44-19.3-13.86-38.34-13.86s-28,6.42-38.33,13.86c-11.19,8-23.86,17.13-48,17.13s-36.82-9.1-48-17.13c-10.36-7.44-19.31-13.86-38.35-13.86s-28,6.42-38.37,13.86c-11.19,8-23.87,17.13-48,17.13v-31c19.05,0,28-6.42,38.36-13.86,11.19-8,23.87-17.13,48-17.13s36.81,9.1,48,17.13c10.37,7.44,19.32,13.86,38.36,13.86s28-6.42,38.34-13.86c11.18-8,23.85-17.13,48-17.13s36.81,9.1,48,17.13c10.35,7.44,19.3,13.86,38.34,13.86s28-6.42,38.33-13.85c11.18-8,23.85-17.14,48-17.14s36.79,9.1,48,17.14c10.36,7.43,19.29,13.85,38.32,13.85Z"/><path class="cls-3" d="M510.5,487.41c-24.12,0-36.79-9.1-48-17.13-10.36-7.44-19.3-13.86-38.32-13.86s-28,6.42-38.33,13.86c-11.18,8-23.85,17.13-48,17.13s-36.81-9.1-48-17.13c-10.35-7.44-19.3-13.86-38.34-13.86s-28,6.42-38.33,13.86c-11.19,8-23.86,17.13-48,17.13s-36.82-9.1-48-17.13c-10.36-7.44-19.31-13.86-38.35-13.86s-28,6.42-38.37,13.86c-11.19,8-23.87,17.13-48,17.13v-31c19.05,0,28-6.42,38.36-13.86,11.19-8,23.87-17.13,48-17.13s36.81,9.1,48,17.13c10.37,7.44,19.32,13.86,38.36,13.86s28-6.42,38.34-13.86c11.18-8,23.85-17.13,48-17.13s36.81,9.1,48,17.13c10.35,7.44,19.3,13.86,38.34,13.86s28-6.42,38.33-13.86c11.18-8,23.85-17.13,48-17.13s36.79,9.1,48,17.13c10.36,7.44,19.29,13.86,38.32,13.86Z"/></svg>