<svg id="Layer_2" data-name="Layer 2" xmlns="http://www.w3.org/2000/svg" viewBox="0 0 500 500"><defs><style>.cls-1{fill:#fff;}.cls-2{fill:#ededed;}.cls-3{fill:#1d1d1b;opacity:0.05;}.cls-4{fill:#c6c6c6;}.cls-5{fill:#3c3c3b;}.cls-6{fill:#8fdaff;}.cls-7{fill:#34b1ed;}</style></defs><rect class="cls-1" x="-7.5" y="-6.95" width="518" height="518"/><path class="cls-2" d="M465.14,0V165.26A109.15,109.15,0,0,1,356,274.4H200.56V119.24H311.49a21,21,0,0,0,21-21V0Z"/><path class="cls-3" d="M465.14,0V165.26A109.15,109.15,0,0,1,356,274.4H229V234.7H337.8a84.86,84.86,0,0,0,84.89-84.9V0Z"/><path class="cls-4" d="M234.07,98.65H200.59v9.53c-26.54,15.78-45,49.57-45,88.74s18.43,73,45,88.75v9.53h33.48c43.26,0,78.45-44.09,78.45-98.28S277.33,98.65,234.07,98.65Z"/><ellipse class="cls-5" cx="200.59" cy="196.92" rx="68.15" ry="87.98"/><path class="cls-2" d="M200.59,295.2c-43.26,0-78.46-44.09-78.46-98.28s35.2-98.27,78.46-98.27S279,142.73,279,196.92,243.85,295.2,200.59,295.2Zm0-175.95c-31.9,0-57.85,34.85-57.85,77.67s25.95,77.67,57.85,77.67,57.84-34.84,57.84-77.67S232.49,119.25,200.59,119.25Z"/><path class="cls-6" d="M258.35,192.92V204h-.14a102.61,102.61,0,0,1-2.47,16.28,93.69,93.69,0,0,1-10.3,25.62,72.66,72.66,0,0,1-6.8,9.41c-6.6,7.69-14.43,13.46-23.08,16.55h-.07a20.53,20.53,0,0,0-3.23,1.1h-.07a6.38,6.38,0,0,0-1.37.62,17.13,17.13,0,0,0-7.28,8,19.15,19.15,0,0,0-1.37,5.22,5.36,5.36,0,0,1-.07,1.44v86.06H109V287.77c.14-2.95.27-5.91.41-8.93a112.63,112.63,0,0,1,9.07-35.1c.34-.82.75-1.65,1.17-2.47s.75-1.65,1.16-2.47c.83-1.72,1.79-3.44,2.75-5.09q1.14-2.06,2.47-4.12a89.58,89.58,0,0,1,6.53-9.2,51.38,51.38,0,0,1,3.5-4.12,49.8,49.8,0,0,1,3.64-4c1.24-1.31,2.47-2.55,3.78-3.78a101.57,101.57,0,0,1,10.23-8.59,86.21,86.21,0,0,1,7.22-4.88q2.56-1.64,5.15-3.09a115.19,115.19,0,0,1,31-11.33,121.2,121.2,0,0,1,15.12-1.92c2.4-.07,4.73-.21,7-.28h37.64A110.16,110.16,0,0,1,258.35,192.92Z"/><path class="cls-6" d="M258.35,192.92V204h-.14a102.61,102.61,0,0,1-2.47,16.28,93.69,93.69,0,0,1-10.3,25.62,72.66,72.66,0,0,1-6.8,9.41c-6.6,7.69-14.43,13.46-23.08,16.55h-.07a20.53,20.53,0,0,0-3.23,1.1h-.07a6.38,6.38,0,0,0-1.37.62,17.13,17.13,0,0,0-7.28,8,19.15,19.15,0,0,0-1.37,5.22,5.36,5.36,0,0,1-.07,1.44v86.06H109V287.77c.14-2.95.27-5.91.41-8.93a112.63,112.63,0,0,1,9.07-35.1c.34-.82.75-1.65,1.17-2.47s.75-1.65,1.16-2.47c.83-1.72,1.79-3.44,2.75-5.09q1.14-2.06,2.47-4.12a89.58,89.58,0,0,1,6.53-9.2,51.38,51.38,0,0,1,3.5-4.12,49.8,49.8,0,0,1,3.64-4c1.24-1.31,2.47-2.55,3.78-3.78a101.57,101.57,0,0,1,10.23-8.59,86.21,86.21,0,0,1,7.22-4.88q2.56-1.64,5.15-3.09a115.19,115.19,0,0,1,31-11.33,121.2,121.2,0,0,1,15.12-1.92c2.4-.07,4.73-.21,7-.28h37.64A110.16,110.16,0,0,1,258.35,192.92Z"/><path class="cls-7" d="M258.35,192.92v1.71H219.13c-2,.14-4,.21-6,.28-4.19.07-8.45,1-12.85,1.65a97,97,0,0,0-26.37,9.61,95.15,95.15,0,0,0-26.38,21.64,88.12,88.12,0,0,0-14.22,22.53,94.79,94.79,0,0,0-7.69,29.94c-.14,2.54-.27,5.09-.41,7.56v86.47H109V287.77c.14-2.95.27-5.91.41-8.93a112.63,112.63,0,0,1,9.07-35.1c.34-.82.75-1.65,1.17-2.47s.75-1.65,1.16-2.47c.83-1.72,1.79-3.44,2.75-5.09q1.14-2.06,2.47-4.12a89.58,89.58,0,0,1,6.53-9.2,51.38,51.38,0,0,1,3.5-4.12,49.8,49.8,0,0,1,3.64-4c1.24-1.31,2.47-2.55,3.78-3.78a101.57,101.57,0,0,1,10.23-8.59,86.21,86.21,0,0,1,7.22-4.88q2.56-1.64,5.15-3.09a115.19,115.19,0,0,1,31-11.33,121.2,121.2,0,0,1,15.12-1.92c2.4-.07,4.73-.21,7-.28h37.64A110.16,110.16,0,0,1,258.35,192.92Z"/><path class="cls-7" d="M258.21,204a102.61,102.61,0,0,1-2.47,16.28H223.18a87.59,87.59,0,0,0-17.86,1.31,75.37,75.37,0,0,0-19.16,7,70.58,70.58,0,0,0-25.48,24.45v.07a60.47,60.47,0,0,0-4,7.56,71.08,71.08,0,0,0-5.57,21.7c-.55,7.7-.2,14-.34,20.75v71.15H134.58v-86.4l.34-6.87a86.67,86.67,0,0,1,6.94-26.93,80.48,80.48,0,0,1,9.62-16.27,84.87,84.87,0,0,1,26.92-23.43,86.74,86.74,0,0,1,23.7-8.65,87.67,87.67,0,0,1,11.6-1.44c1.86-.07,3.65-.21,5.43-.28Z"/><path class="cls-7" d="M253,229.66a82,82,0,0,1-7.55,16.28H219.13c-1,0-1.92.07-2.88.14a42.58,42.58,0,0,0-5.84.69,47.46,47.46,0,0,0-11.88,4.32,43.45,43.45,0,0,0-17.79,18.75c-.21.42-.42.83-.62,1.31a46.53,46.53,0,0,0-3.51,13.46l-.13,3.5-.07,5v81.18H160.2V303.16c.14-6.46-.21-13.74.27-19.92a61.56,61.56,0,0,1,4.81-18.69c.62-1.44,1.31-2.81,2.06-4.19a59.64,59.64,0,0,1,23.36-23.49,63,63,0,0,1,16.48-6,79.25,79.25,0,0,1,16-1.24Z"/><path class="cls-7" d="M238.64,255.35c-6.6,7.69-14.43,13.46-23.08,16.55,0,.07-.07,0-.07,0a20.53,20.53,0,0,0-3.23,1.1h-.07a6.38,6.38,0,0,0-1.37.62,17.13,17.13,0,0,0-7.28,8,19.15,19.15,0,0,0-1.37,5.22,5.36,5.36,0,0,1-.07,1.44v86.06H185.82V293.13l.07-4.95c.07-.89.13-1.85.13-2.74A34.68,34.68,0,0,1,188.7,275c.28-.61.55-1.23.9-1.85a33.87,33.87,0,0,1,13.46-13.81,39.93,39.93,0,0,1,9.2-3.36c1.58-.07,3-.55,4.54-.48.82-.07,1.58-.14,2.33-.14Z"/><circle class="cls-1" cx="148.19" cy="357.25" r="25.81"/><path class="cls-7" d="M148.19,389.93a32.68,32.68,0,1,1,32.68-32.68A32.72,32.72,0,0,1,148.19,389.93Zm0-51.63a18.95,18.95,0,1,0,18.94,18.95A19,19,0,0,0,148.19,338.3Z"/><path class="cls-1" d="M210.34,366.08a18.84,18.84,0,1,1-18.83-18.84A18.84,18.84,0,0,1,210.34,366.08Z"/><path class="cls-7" d="M191.51,389.93a23.85,23.85,0,1,1,23.84-23.85A23.88,23.88,0,0,1,191.51,389.93Zm0-37.67a13.83,13.83,0,1,0,13.82,13.82A13.84,13.84,0,0,0,191.51,352.26Z"/><path class="cls-1" d="M83.58,371.53A14.53,14.53,0,1,1,69.05,357,14.53,14.53,0,0,1,83.58,371.53Z"/><path class="cls-7" d="M69.05,389.93a18.4,18.4,0,1,1,18.39-18.4A18.41,18.41,0,0,1,69.05,389.93Zm0-29.06a10.67,10.67,0,1,0,10.66,10.66A10.68,10.68,0,0,0,69.05,360.87Z"/><circle class="cls-1" cx="103.1" cy="363.78" r="19.28"/><path class="cls-7" d="M103.1,389.93a26.15,26.15,0,1,1,26.14-26.15A26.18,26.18,0,0,1,103.1,389.93Zm0-38.55a12.41,12.41,0,1,0,12.41,12.4A12.42,12.42,0,0,0,103.1,351.38Z"/><circle class="cls-1" cx="230.65" cy="363.78" r="19.28"/><path class="cls-7" d="M230.65,389.93a26.15,26.15,0,1,1,26.15-26.15A26.18,26.18,0,0,1,230.65,389.93Zm0-38.55a12.41,12.41,0,1,0,12.41,12.4A12.42,12.42,0,0,0,230.65,351.38Z"/><circle class="cls-7" cx="69.05" cy="331.43" r="9.25"/><ellipse class="cls-1" cx="63.48" cy="331.12" rx="2.15" ry="3.04"/><circle class="cls-7" cx="83.86" cy="298.4" r="12.83"/><ellipse class="cls-1" cx="76.14" cy="297.97" rx="2.99" ry="4.21"/><path class="cls-7" d="M237.88,314.83A12.83,12.83,0,1,1,225.05,302,12.82,12.82,0,0,1,237.88,314.83Z"/><ellipse class="cls-1" cx="217.33" cy="314.39" rx="2.99" ry="4.21"/></svg>