<svg id="Layer_2" data-name="Layer 2" xmlns="http://www.w3.org/2000/svg" viewBox="0 0 500 500"><defs><style>.cls-1{fill:#fff;}.cls-2{fill:#8fdaff;}.cls-3{fill:#34b1ed;}.cls-4{fill:#575756;}.cls-5{fill:#878787;}.cls-6{fill:#b2b2b2;}.cls-7{fill:#9d9d9c;}</style></defs><rect class="cls-1" x="-7.5" y="-6.95" width="518" height="518"/><path class="cls-2" d="M288,137.74l-5.45-.32-7-.29c-1.3,0-2.66,0-4.1,0s-3,0-4.49,0l-4.78.18c-1.64.09-3.24.26-5,.39s-3.43.36-5.17.6l-2.7.37c-.92.13-1.75.32-2.66.49a97.93,97.93,0,0,0-23.25,7.31,110.13,110.13,0,0,0-28,19.19,109.54,109.54,0,0,0-8.51,8.37l-4.76,5c-1.7,1.8-3.16,3.74-4.83,5.72-3.46,4.27-7.4,8.84-11.13,13.82q-6,8.37-12.87,18.11c-5.58,7.74-9.77,14.19-14.64,21.47l-17.21,25.76L73.67,335.43-22.61,479.54h236.4c1.41-31.9,3.46-78.21,5.56-125.84,1.26-28.5,2.45-55.53,3.51-79.48q.66-14.89,1.24-28.11c.35-7.8.61-15.63,1.2-21,.43-5.34.85-10.44,1.24-15.27.5-4.41,1.47-8.51,2.09-12.45.37-1.84.52-3.7,1-5.4s1-3.24,1.43-4.8a49.12,49.12,0,0,1,2.84-8.36c3.54-8.88,8.4-15.86,14.31-20.64a46.81,46.81,0,0,1,17-8.58c.73-.2,1.36-.45,2.13-.6l2.24-.46a36,36,0,0,1,4.32-.76c1.48-.18,2.81-.41,4.23-.53l4.19-.27c1.25-.13,2.72-.08,4-.1l3.66,0,6.39.26,6.76.41Z"/><path class="cls-2" d="M288,137.8l-5.45-.35-7-.32c-1.3,0-2.66,0-4.1,0s-3,0-4.49.05l-4.78.19c-1.64.1-3.24.28-5,.43s-3.43.39-5.17.65l-2.7.41c-.92.14-1.75.35-2.66.53a91.93,91.93,0,0,0-23.25,8c-9.23,4.63-18.72,11.63-28,21a116.08,116.08,0,0,0-8.51,9.14l-4.76,5.45c-1.7,2-3.16,4.09-4.83,6.24-3.46,4.67-7.4,9.66-11.13,15.1L153.3,224c-5.58,8.46-9.77,15.5-14.64,23.44l-17.21,28.14-47.78,78.1L-22.61,511.05h236.4c1.41-34.84,3.46-85.4,5.56-137.42,1.26-31.13,2.45-60.63,3.51-86.79q.66-16.26,1.24-30.7c.35-8.52.61-17.06,1.2-22.91.43-5.83.85-11.4,1.24-16.68.5-4.81,1.47-9.28,2.09-13.59.37-2,.52-4,1-5.9s1-3.54,1.43-5.24a56.68,56.68,0,0,1,2.84-9.12c3.54-9.71,8.4-17.33,14.31-22.54a45.27,45.27,0,0,1,17-9.37c.73-.22,1.36-.5,2.13-.67l2.24-.49a34,34,0,0,1,4.32-.84c1.48-.19,2.81-.44,4.23-.57l4.19-.3c1.25-.14,2.72-.08,4-.11l3.66,0,6.39.28,6.76.45Z"/><path class="cls-3" d="M288,137.8l-5.45-.35-7-.32c-1.3,0-2.66,0-4.1,0s-3,0-4.49.05l-4.78.19c-1.64.1-3.24.28-5,.43s-3.43.39-5.17.65l-2.7.41c-.92.14-1.75.35-2.66.53a91.93,91.93,0,0,0-23.25,8c-9.23,4.63-18.72,11.63-28,21a116.08,116.08,0,0,0-8.51,9.14l-4.76,5.45c-1.7,2-3.16,4.09-4.83,6.24-3.46,4.67-7.4,9.66-11.13,15.1L153.3,224c-5.58,8.46-9.77,15.5-14.64,23.44l-17.21,28.14-47.78,78.1L-22.61,511.05H19.64L98.13,357c14.44-28.32,28.23-55.37,40.54-79.54l14.56-28.56c4.11-8,7.72-15.33,12.21-23.37L176,206.24c3.11-5.36,6.5-10.28,9.43-14.91,1.43-2.14,2.66-4.26,4.14-6.21s2.82-3.69,4.17-5.44a99.21,99.21,0,0,1,7.53-9.18c8.33-9.42,17.07-16.54,25.77-21.27A82.48,82.48,0,0,1,249.36,141c.88-.19,1.68-.41,2.58-.55l2.62-.43c1.7-.27,3.31-.54,5.05-.68s3.25-.34,4.85-.45l4.69-.21c1.44-.09,3-.05,4.42-.06l4,0,6.89.32,5.64.37Z"/><path class="cls-3" d="M291.47,140.28l-5.75-.37-6.84-.32h-4c-1.4,0-2.95,0-4.38.06l-4.63.22c-1.59.11-3.12.3-4.79.46s-3.3.42-5,.7l-2.59.43c-.88.15-1.67.38-2.53.57a77.19,77.19,0,0,0-21.71,8.36c-8.38,4.79-16.67,12-24.44,21.45A94,94,0,0,0,197.9,181l-3.83,5.43c-1.36,2-2.44,4.06-3.74,6.19-2.63,4.6-5.7,9.49-8.47,14.79l-9.31,19c-3.9,7.79-7.15,15.22-10.81,23.32l-13,28.82L112.49,359,43.91,511.05H85.45c10.38-29.62,30.76-87.73,52.1-148.62C156.26,309.69,172.06,263,185,228.06q3.81-9.85,7.18-18.53c2.19-5.21,4.72-10,6.84-14.56,1.07-2.11,1.93-4.2,3.07-6.14l3.24-5.41a80,80,0,0,1,6-9.2c6.77-9.55,14.27-16.86,22.09-21.75a68.78,68.78,0,0,1,20.66-8.6c.84-.2,1.59-.43,2.45-.59l2.51-.44c1.61-.29,3.14-.59,4.83-.73s3.11-.38,4.66-.49l4.54-.24c1.39-.11,2.92-.06,4.3-.07h3.92l6.75.31,6,.39Z"/><path class="cls-3" d="M295.43,143.07l-6.09-.4-6.69-.3h-3.88c-1.36,0-2.88,0-4.25.08l-4.48.25c-1.52.12-3,.33-4.59.5s-3.16.46-4.74.75l-2.47.46c-.84.16-1.57.4-2.39.6a64,64,0,0,0-20,8.74c-7.49,5-14.52,12.33-20.7,21.92a73.93,73.93,0,0,0-5.39,9.2l-2.89,5.39c-1,1.92-1.75,4-2.69,6.1-1.84,4.52-4.06,9.27-5.92,14.41q-2.82,8.55-6,18.22c-10.78,34.58-24.22,82.4-40,135.46-17.26,58.94-33.81,115.42-42.94,146.6h40.83L178,368c5.85-30.15,11.42-58.82,16.37-84.29,2.05-10.57,4-20.58,5.82-30,1.63-8.36,3.11-16.47,4.77-23.08Q207,221.29,209,213c1.31-5,3-9.68,4.39-14.12.71-2.07,1.2-4.13,2-6s1.57-3.61,2.33-5.34a65.72,65.72,0,0,1,4.39-9.19c5.16-9.65,11.37-17.12,18.26-22.18a56.41,56.41,0,0,1,18.9-9c.79-.21,1.48-.46,2.29-.62l2.39-.47a41.84,41.84,0,0,1,4.59-.78c1.55-.18,3-.41,4.46-.53l4.37-.27c1.32-.12,2.83-.07,4.16-.09h3.8l6.58.29,6.33.42Z"/><path class="cls-3" d="M300,146.26l-6.48-.43-6.52-.29-3.75,0c-1.31,0-2.8,0-4.1.1l-4.31.27c-1.46.13-2.85.37-4.38.55a37.53,37.53,0,0,0-4.49.8l-2.33.48c-.8.17-1.47.42-2.23.64a52.16,52.16,0,0,0-18.22,9.12c-6.54,5.12-12.26,12.65-16.83,22.33a61.68,61.68,0,0,0-3.82,9.17q-1,2.58-2,5.31c-.7,1.89-1.07,3.94-1.65,6-1.08,4.4-2.52,9-3.53,13.94q-1.41,8.18-3,17.31c-1.24,6.34-2.28,14.61-3.45,23q-1.95,14.21-4.15,30.23c-3.54,25.73-7.52,54.7-11.72,85.21-7.49,54.44-14.73,107.13-19.39,141h40.16c1.41-34.84,3.46-85.4,5.56-137.42,1.26-31.13,2.45-60.63,3.51-86.79q.66-16.26,1.24-30.7c.35-8.52.61-17.06,1.2-22.91.43-5.83.85-11.4,1.24-16.68.5-4.81,1.47-9.28,2.09-13.59.37-2,.52-4,1-5.9s1-3.54,1.43-5.24a56.68,56.68,0,0,1,2.84-9.12c3.54-9.71,8.4-17.33,14.31-22.54a45.27,45.27,0,0,1,17-9.37c.73-.22,1.36-.5,2.13-.67l2.24-.49a34,34,0,0,1,4.32-.84c1.48-.19,2.81-.44,4.23-.57l4.19-.3c1.25-.14,2.72-.08,4-.11l3.66,0,6.39.28,6.76.45Z"/><path class="cls-4" d="M363.27,371a21,21,0,0,1-4.71-.54l-.14,0a42.66,42.66,0,0,1-14.88-6.33,5.69,5.69,0,1,1,6.63-9.26,31.65,31.65,0,0,0,10.83,4.5l.14,0a9.3,9.3,0,0,0,7.94-1.82,9.65,9.65,0,0,0,3.67-7.6v-179a24.07,24.07,0,0,0-24-24H324.23a5.69,5.69,0,0,1,0-11.38h24.48a35.46,35.46,0,0,1,35.43,35.42v179a21,21,0,0,1-8,16.52A20.67,20.67,0,0,1,363.27,371Z"/><path class="cls-4" d="M547.39,349.38l-8.94-.07c-12.13-.11-23.4-4.61-30.93-12.33-15.31-15.73-48.58-27.64-89-31.86-53.36-5.67-108.42,2.54-137,20.4-16.18,9.87-20.12,20-20.57,26.84-.41,6,1.51,15.1,12.93,24.36,17.82,14.44,55,24.23,94.77,24.92,1.25,0,2.5,0,3.77,0,38.43,0,85.24-8.87,100.88-28.95,5.12-6.68,6.48-14,3.94-21.09-4.42-12.39-20.36-22.38-44.89-28.14-33-7.77-72.79-6.79-101.36,2.49-19.12,6.22-30.38,15.46-31.7,26-.68,5.47,1,13.56,12.92,21.07,13.92,8.58,37,13.69,61.87,13.69,21-.3,47.72-4.57,59.95-15.7,4.81-4.44,6.81-9.83,5.65-15.17-1.67-7.71-9.5-14.08-22.74-18.45-20.53-6.4-49.67-5.55-66.34,1.94l-.21.1c-7.59,3.8-11.73,8.32-12.31,13.45-.32,2.79.31,6.95,5.09,10.9a5.69,5.69,0,1,0,7.25-8.78,5.07,5.07,0,0,1-.94-1c.31-.54,1.55-2.18,5.9-4.38,14-6.23,40.6-6.87,58.08-1.42,10.27,3.39,14.55,7.51,15.09,10,.28,1.27-.48,2.75-2.21,4.35-8,7.27-29.06,12.38-52.34,12.72-22.76,0-43.62-4.49-55.76-12-3.08-1.94-8.17-5.82-7.65-10s7.11-11.14,23.92-16.61c26.73-8.68,64.11-9.56,95.24-2.23,20,4.7,33.78,12.51,36.77,20.88,1.21,3.39.47,6.77-2.23,10.29-11.4,14.63-52.47,25.17-95.45,24.51-36.79-.65-72.07-9.64-87.79-22.39-4.21-3.41-9.14-8.74-8.74-14.75.39-5.81,5.76-12.16,15.19-17.91,26.19-16.39,79.55-24.1,129.79-18.76,37.28,3.89,68.7,14.8,82,28.47,9.63,9.89,23.84,15.64,39,15.78l9,.07Z"/><rect class="cls-5" x="320.57" y="131.7" width="11.91" height="18.61"/><polygon class="cls-6" points="318.15 150.31 273.88 144.74 273.88 137.26 318.15 131.7 318.15 150.31"/><rect class="cls-7" x="318.15" y="128.61" width="4.85" height="24.8"/></svg>