<svg id="Layer_3" data-name="Layer 3" xmlns="http://www.w3.org/2000/svg" viewBox="0 0 500 500"><defs><style>.cls-1{fill:#d9e4f4;}.cls-2{fill:#8a9199;}.cls-3{fill:#f22d06;}.cls-4{fill:#f2a60f;}.cls-5{fill:#f2f21c;}.cls-6{fill:#a0e252;}.cls-7{fill:#74c64e;}.cls-8{fill:#fff;}</style></defs><circle class="cls-1" cx="252.41" cy="250" r="241.2"/><path class="cls-2" d="M471.45,274.37l.44-5.68,2,.15a10,10,0,0,0,2.37,0,.85.85,0,0,0,.18-1.48,6.65,6.65,0,0,0-2.07-.35l-10.49-.82a6.56,6.56,0,0,0-2,0,.73.73,0,0,0-.52.72.84.84,0,0,0,.46.89,6.41,6.41,0,0,0,2,.38l2.59.2.09-1.15,3.32.26-.52,6.66-11.74-.91.28-3.57,1.61-.41a4.06,4.06,0,0,1-1.41-1.58,4.21,4.21,0,0,1-.34-2.13,5.48,5.48,0,0,1,.9-2.63,5.17,5.17,0,0,1,1.88-1.77,5.39,5.39,0,0,1,2.21-.64,25.36,25.36,0,0,1,3.4.1l6.5.5a23.11,23.11,0,0,1,4.53.69,4.75,4.75,0,0,1,2.45,2.15,6.86,6.86,0,0,1,.86,4.23,7.78,7.78,0,0,1-1.35,4.07,4.89,4.89,0,0,1-2.61,2,12.94,12.94,0,0,1-4.14.18Z"/><path class="cls-2" d="M464.46,289.39c-2.18-.33-3.72-.61-4.61-.85a5.2,5.2,0,0,1-2.34-1.34,5.29,5.29,0,0,1-1.4-2.45,8.21,8.21,0,0,1-.12-3.31,8.35,8.35,0,0,1,1.05-3,5.14,5.14,0,0,1,2-2,5.25,5.25,0,0,1,2.63-.64,46.67,46.67,0,0,1,4.72.55l3.71.56c2.18.33,3.71.61,4.6.85a5.25,5.25,0,0,1,3.74,3.79,7.88,7.88,0,0,1,.12,3.31,8.1,8.1,0,0,1-1,3,5.24,5.24,0,0,1-4.67,2.61,46,46,0,0,1-4.72-.55Zm8-4.56a6.78,6.78,0,0,0,2,.12.69.69,0,0,0,.53-.63.79.79,0,0,0-.24-.72,4.67,4.67,0,0,0-2-.54l-10.13-1.53a10,10,0,0,0-2.35-.2.68.68,0,0,0-.55.65.7.7,0,0,0,.4.82,10.63,10.63,0,0,0,2.4.52Z"/><path class="cls-2" d="M461.14,304.49c-2.15-.48-3.66-.88-4.53-1.18a5.23,5.23,0,0,1-2.24-1.5,5.33,5.33,0,0,1-1.22-2.55,8.1,8.1,0,0,1,.12-3.3,8.34,8.34,0,0,1,1.26-3,5.31,5.31,0,0,1,2.18-1.82,5.17,5.17,0,0,1,2.67-.44,47.15,47.15,0,0,1,4.66.88l3.66.83a43.93,43.93,0,0,1,4.54,1.18,5.23,5.23,0,0,1,2.24,1.5,5.33,5.33,0,0,1,1.22,2.55,8.1,8.1,0,0,1-.12,3.3,8.21,8.21,0,0,1-1.26,3,5.25,5.25,0,0,1-4.85,2.27c-.9-.1-2.46-.39-4.66-.89Zm8.29-4a6.84,6.84,0,0,0,1.95.26.68.68,0,0,0,.57-.59.79.79,0,0,0-.19-.74,5,5,0,0,0-1.94-.68l-10-2.25a9.66,9.66,0,0,0-2.34-.36.67.67,0,0,0-.59.61.7.7,0,0,0,.34.84,10.72,10.72,0,0,0,2.35.69Z"/><path class="cls-2" d="M472.82,310.55l-1.23,4.08a27.14,27.14,0,0,1-2,5.25,4.23,4.23,0,0,1-1.83,1.75,4,4,0,0,1-2.13.36,30.25,30.25,0,0,1-4-1l-7.36-2.23a17.78,17.78,0,0,1-3.7-1.4,3,3,0,0,1-1.21-1.38,4,4,0,0,1-.26-1.86,15.3,15.3,0,0,1,.67-3l2.08-6.89Zm-5.24,4.37-13.81-4.17c-.24.78-.23,1.32,0,1.59a7.1,7.1,0,0,0,2.49,1.05l8.16,2.47a10.93,10.93,0,0,0,1.86.46.92.92,0,0,0,.71-.23A2.73,2.73,0,0,0,467.58,314.92Z"/><circle class="cls-1" cx="249.85" cy="249.47" r="198.62" transform="translate(-103.22 249.73) rotate(-45)"/><path class="cls-1" d="M249.94,247.68,85.33,358.83a199,199,0,0,1,3.92-227.89C153.3,42.79,278.54,23,366.69,87s108,189.28,43.94,277.43Z"/><path class="cls-3" d="M252.48,253,92.11,370.15A198.63,198.63,0,0,1,59.76,204.93Z"/><path class="cls-4" d="M252.48,253l-192.72-48A198.63,198.63,0,0,1,165.88,74.23Z"/><path class="cls-5" d="M252.36,253,165.75,74.23A198.62,198.62,0,0,1,334.09,72Z"/><path class="cls-6" d="M251.44,252.13l81.74-181A198.64,198.64,0,0,1,442.79,198.89Z"/><path class="cls-7" d="M252.41,251.08l191.35-53.24a198.53,198.53,0,0,1-27.87,166Z"/><path class="cls-2" d="M249.85,451.64a202.18,202.18,0,0,1-143-345.13A202.17,202.17,0,1,1,392.8,392.42,200.81,200.81,0,0,1,249.85,451.64Zm0-397.24c-107.57,0-195.07,87.5-195.07,195.07s87.5,195.06,195.07,195.06S444.92,357,444.92,249.47,357.41,54.4,249.85,54.4Z"/><rect class="cls-8" x="196.25" y="362.17" width="123.26" height="48.06" rx="18.02"/><path class="cls-2" d="M303.23,411.75h-90.7a17.82,17.82,0,0,1-17.8-17.8v-15.5a17.82,17.82,0,0,1,17.8-17.8h90.7a17.82,17.82,0,0,1,17.8,17.8V394A17.82,17.82,0,0,1,303.23,411.75Zm-90.7-48.06a14.78,14.78,0,0,0-14.76,14.76V394a14.78,14.78,0,0,0,14.76,14.76h90.7A14.78,14.78,0,0,0,318,394v-15.5a14.78,14.78,0,0,0-14.76-14.76Z"/><circle class="cls-8" cx="252.47" cy="254.71" r="77.02"/><path class="cls-2" d="M270.21,236.47a24,24,0,1,1-32.72-9A24,24,0,0,1,270.21,236.47Z"/><polygon class="cls-2" points="340.8 120.32 240.68 226.37 273.6 249.76 340.8 120.32"/><path class="cls-1" d="M249.67,233.33a13.05,13.05,0,0,1,7.57,1.41,7.32,7.32,0,0,1,3.82,6.39c-.12,2.6-2.41,5.07-5,4.93a15.09,15.09,0,0,1-3.62-1,9.7,9.7,0,0,0-9,1.95c-4.18,3.64-11.09,5.42-9.19-2.85C235.65,237.85,243.91,233.78,249.67,233.33Z"/><path class="cls-2" d="M248.08,384.46a4,4,0,0,1,2.21,1.64q.74,1.14.73,5.34a13.18,13.18,0,0,1-.71,4.84,5,5,0,0,1-2.46,2.62,9.72,9.72,0,0,1-4.47.89,9.55,9.55,0,0,1-4.87-1,5,5,0,0,1-2.33-2.55,17,17,0,0,1-.56-5.24v-2.07h6.53v4.25a7.1,7.1,0,0,0,.2,2.16.89.89,0,0,0,.9.46,1,1,0,0,0,1-.59,10.88,10.88,0,0,0,.24-3v-1.81a5.24,5.24,0,0,0-.34-2.2,1.65,1.65,0,0,0-1-.91,10,10,0,0,0-2.57-.25v-3.8a13,13,0,0,0,2.88-.18,1.21,1.21,0,0,0,.79-.77,5.4,5.4,0,0,0,.24-1.88v-1.45a3.79,3.79,0,0,0-.28-1.81,1.14,1.14,0,0,0-1.81,0,4.78,4.78,0,0,0-.25,2v2.15h-6.53V379c0-2.5.58-4.19,1.72-5.07s2.95-1.31,5.44-1.31q4.66,0,6.33,1.82a7.26,7.26,0,0,1,1.67,5.07,6.31,6.31,0,0,1-.6,3.17A5.4,5.4,0,0,1,248.08,384.46Z"/><path class="cls-2" d="M267.61,373.12v4.19h-8.09v4.44a4.86,4.86,0,0,1,3.91-1.79,5.24,5.24,0,0,1,4.08,1.51q1.38,1.5,1.38,5.81V391a22.14,22.14,0,0,1-.27,4.08,5.72,5.72,0,0,1-1.14,2.4,5.42,5.42,0,0,1-2.43,1.7,10.87,10.87,0,0,1-3.8.59,10.55,10.55,0,0,1-4.45-.88,5.32,5.32,0,0,1-2.73-2.63,13.52,13.52,0,0,1-.8-5.39v-1.42h6.52v1.63a24.64,24.64,0,0,0,.18,3.6,1.14,1.14,0,0,0,1.23,1.07,1.06,1.06,0,0,0,.78-.31,1,1,0,0,0,.32-.66q0-.36.06-3.09v-5.18a4.42,4.42,0,0,0-.31-2,1.08,1.08,0,0,0-1-.53,1.09,1.09,0,0,0-.76.27,1.27,1.27,0,0,0-.4.59,7.09,7.09,0,0,0-.09,1.47h-6.46l.27-13.19Z"/><path class="cls-2" d="M286.51,382v8.72a21.14,21.14,0,0,1-.32,4.33,6.08,6.08,0,0,1-1.34,2.54,5.79,5.79,0,0,1-2.46,1.69,9.32,9.32,0,0,1-3.21.52,12.06,12.06,0,0,1-3.9-.54,5.42,5.42,0,0,1-2.47-1.69,7.36,7.36,0,0,1-1.31-2.42,15.43,15.43,0,0,1-.38-4V382a17.4,17.4,0,0,1,.62-5.4,5.32,5.32,0,0,1,2.47-2.87,8.65,8.65,0,0,1,4.48-1.09,9.41,9.41,0,0,1,3.85.75,6.51,6.51,0,0,1,2.53,1.84,6,6,0,0,1,1.14,2.44A22.12,22.12,0,0,1,286.51,382Zm-6.53-2.2a9.57,9.57,0,0,0-.2-2.61.88.88,0,0,0-.94-.52.92.92,0,0,0-1,.55,8.31,8.31,0,0,0-.24,2.58v12.76a9.67,9.67,0,0,0,.22,2.75.94.94,0,0,0,.95.47.93.93,0,0,0,.95-.55,8.31,8.31,0,0,0,.22-2.47Z"/><path class="cls-2" d="M398.25,75.2,384.49,92.29l-3.9-3.14,4-9.63-6.26,7.77-3.71-3,13.76-17.08,3.72,3-3.71,9.7,6.2-7.69Z"/><path class="cls-2" d="M401.69,95.78q-2.25,2.41-3.3,3.32a5.25,5.25,0,0,1-5.25,1,9,9,0,0,1-4.71-4.35,5.24,5.24,0,0,1,.49-5.33A43.22,43.22,0,0,1,392,86.79L394.59,84q2.25-2.42,3.3-3.32a5.22,5.22,0,0,1,2.43-1.18,5.34,5.34,0,0,1,2.81.23,8.94,8.94,0,0,1,4.72,4.35,5.19,5.19,0,0,1,.47,2.8,5.11,5.11,0,0,1-1,2.53A47.23,47.23,0,0,1,404.25,93Zm.74-9.17a6.91,6.91,0,0,0,1.21-1.54.67.67,0,0,0-.22-.79.8.8,0,0,0-.74-.22,5.11,5.11,0,0,0-1.56,1.34l-7,7.5a10.19,10.19,0,0,0-1.5,1.83.69.69,0,0,0,.23.82.71.71,0,0,0,.9.13A11.28,11.28,0,0,0,395.56,94Z"/><path class="cls-2" d="M412.82,88.76l2.75,3a31.48,31.48,0,0,1,3.5,4.21,3.78,3.78,0,0,1,.42,2.79,7.28,7.28,0,0,1-2.37,3.45,6.43,6.43,0,0,1-3,1.88,3.36,3.36,0,0,1-2.48-1.12,4.34,4.34,0,0,1,.73,2.44,3.29,3.29,0,0,1-.46,1.41,20.53,20.53,0,0,1-2.27,2.31l-4.24,4-3.61-3.88,5.34-5a4.94,4.94,0,0,0,1.4-1.69c.08-.33-.15-.78-.68-1.35l-7.24,6.74-3.89-4.18ZM414,95.5l-3.57,3.32a2.57,2.57,0,0,0,1.11.81c.3.07.81-.23,1.52-.89l.88-.82c.51-.48.76-.88.75-1.21A2.09,2.09,0,0,0,414,95.5Z"/><path class="cls-2" d="M434.8,114.57l-17.23,13.58-3.09-3.92,11.63-9.17-12.86,7.61-2.19-2.78,10.07-10.6-11.37,8.95-3.09-3.92,17.24-13.58,4.57,5.8c-.9,1-2,2.13-3.25,3.42l-3.88,4.09,8.86-5.31Z"/><path class="cls-2" d="M442.32,125.8l-16.46,14.88-3.23-4.86,3.12-2.43-1.13-1.7-3.48,1.9-3.27-4.91,19.88-9.74Zm-13.42,5.31q2.87-2.43,7.19-5.83-5.73,2.76-8.28,4.19Z"/><path class="cls-2" d="M448,135.16,432.83,144l1.75,3-3.79,2.21-4.63-7.92,18.93-11.07Z"/><path class="cls-2" d="M229.89,21.2l9.65-.52.23,4.39-4,.21.22,4.15,3.52-.18.22,4.16-3.52.19.5,9.2-5.7.31Z"/><path class="cls-2" d="M251.2,20.65l3.19,22-5.83,0-.3-3.94h-2l-.35,3.94H240l3-21.94Zm-3.07,14.1q-.42-3.74-.84-9.22c-.6,4.2-1,7.27-1.13,9.21Z"/><path class="cls-2" d="M262,21.15l-1.22,21.9-5.69-.31,1.22-21.91Z"/><path class="cls-2" d="M265.21,21.31l4,.45a30.28,30.28,0,0,1,5.4.91,3.76,3.76,0,0,1,2.14,1.83,7.15,7.15,0,0,1,.45,4.16,6.42,6.42,0,0,1-1,3.36,3.39,3.39,0,0,1-2.61.77,4.32,4.32,0,0,1,2.14,1.37,3.24,3.24,0,0,1,.58,1.37,20.89,20.89,0,0,1-.21,3.24l-.64,5.75-5.26-.58.79-7.25a5.11,5.11,0,0,0,0-2.2c-.16-.29-.62-.49-1.4-.57l-1.09,9.83-5.67-.62Zm5.26,4.36-.53,4.85a2.6,2.6,0,0,0,1.37-.11c.27-.15.46-.7.57-1.67l.13-1.19a1.8,1.8,0,0,0-.22-1.41A2.11,2.11,0,0,0,270.47,25.67Z"/><path class="cls-2" d="M55.85,130.25,59,125.51a14.5,14.5,0,0,1,2.61-3.17,4,4,0,0,1,2.66-.93,7.65,7.65,0,0,1,3.9,1.57,4.4,4.4,0,0,1,1.9,2,4.19,4.19,0,0,1-.34,2.63,4.22,4.22,0,0,1,2.72-1.42,5.82,5.82,0,0,1,3,1.18l1.69,1.12a8.05,8.05,0,0,1,2.47,2.25,2.73,2.73,0,0,1,.32,2.16,16.53,16.53,0,0,1-2.19,4l-3.65,5.5Zm6.28-2.68,4.07,2.7.3-.48c.31-.47.4-.84.25-1.12a6.73,6.73,0,0,0-1.84-1.5,3.86,3.86,0,0,0-1.31-.64.91.91,0,0,0-.71.12A4.9,4.9,0,0,0,62.13,127.57ZM69,132.16l5.12,3.4a2.43,2.43,0,0,0,.53-1.5c-.06-.3-.46-.7-1.2-1.19l-1.71-1.14c-.78-.51-1.31-.75-1.58-.69S69.54,131.47,69,132.16Z"/><path class="cls-2" d="M71.11,108.77l19.38,10.78-3.56,4.63L83.62,122l-1.24,1.61,2.91,2.68L81.7,131,66.08,115.3Zm9.33,11q-3.21-1.92-7.83-4.93,4.47,4.55,6.64,6.49Z"/><path class="cls-2" d="M74.5,104.52l2.83-3.2a27,27,0,0,1,4-3.93,4.32,4.32,0,0,1,2.4-.83,4.08,4.08,0,0,1,2.08.57,30.79,30.79,0,0,1,3.25,2.63l5.75,5.1a17.44,17.44,0,0,1,2.77,2.83,3,3,0,0,1,.53,1.76,4.11,4.11,0,0,1-.55,1.8,16,16,0,0,1-1.86,2.44l-4.78,5.38Zm6.59-1.78,10.8,9.57c.55-.61.76-1.1.64-1.46a7.2,7.2,0,0,0-1.83-2l-6.38-5.65a11.55,11.55,0,0,0-1.49-1.2.87.87,0,0,0-.75-.08A2.69,2.69,0,0,0,81.09,102.74Z"/><path class="cls-2" d="M34.1,326.94l-1.78-5.46a13.4,13.4,0,0,1-.77-3.53,4.12,4.12,0,0,1,.42-2.11,3.54,3.54,0,0,1,1.33-1.33,14.43,14.43,0,0,1,2.82-1.16l1.82-.59a7.8,7.8,0,0,1,3.05-.54,3,3,0,0,1,1.89,1.06A7.27,7.27,0,0,1,44.31,316l.48,1.45,8.4-2.74L55,320.14Zm1.8-6.59,5.31-1.73c-.05-.16-.08-.29-.12-.4a1.31,1.31,0,0,0-.71-.92,2.8,2.8,0,0,0-1.62.21l-1.71.55c-.71.24-1.14.5-1.28.79A2.17,2.17,0,0,0,35.9,320.35Z"/><path class="cls-2" d="M38.79,296.76a45.9,45.9,0,0,1,4.57-1,5.23,5.23,0,0,1,2.68.33,5.38,5.38,0,0,1,2.24,1.72A9,9,0,0,1,49.87,304a5.22,5.22,0,0,1-1.12,2.61,5.28,5.28,0,0,1-2.19,1.6c-.85.32-2.37.76-4.56,1.31l-3.64.92c-2.14.53-3.66.86-4.58,1a5.1,5.1,0,0,1-2.67-.33,5.24,5.24,0,0,1-2.24-1.72,8.05,8.05,0,0,1-1.38-3,8.28,8.28,0,0,1-.22-3.21,5.27,5.27,0,0,1,3.31-4.2,44.5,44.5,0,0,1,4.56-1.32Zm-5.61,7.29a6.61,6.61,0,0,0-1.85.64.68.68,0,0,0-.25.78.8.8,0,0,0,.5.58,4.79,4.79,0,0,0,2-.27l9.94-2.49a10,10,0,0,0,2.24-.73.67.67,0,0,0,.26-.81.69.69,0,0,0-.68-.6,11.34,11.34,0,0,0-2.42.44Z"/><path class="cls-2" d="M36,281.54c2.17-.38,3.72-.6,4.64-.66a5.29,5.29,0,0,1,4.75,2.4,8,8,0,0,1,1.16,3.1,8.29,8.29,0,0,1,0,3.22,5.28,5.28,0,0,1-3.61,4,46.51,46.51,0,0,1-4.64,1l-3.7.65c-2.17.38-3.71.6-4.63.66a5.18,5.18,0,0,1-2.65-.53,5.3,5.3,0,0,1-2.11-1.87,8,8,0,0,1-1.16-3.1,8.28,8.28,0,0,1,0-3.22,5.26,5.26,0,0,1,3.6-3.95,43.63,43.63,0,0,1,4.64-1Zm-6.11,6.87a6.84,6.84,0,0,0-1.9.51.67.67,0,0,0-.3.76.78.78,0,0,0,.46.61,4.75,4.75,0,0,0,2-.12l10.09-1.78a10.36,10.36,0,0,0,2.3-.56.68.68,0,0,0,.31-.79.71.71,0,0,0-.64-.65,11.75,11.75,0,0,0-2.44.27Z"/><path class="cls-2" d="M22.91,280.47l-.41-4a30.35,30.35,0,0,1-.25-5.47,3.74,3.74,0,0,1,1.34-2.49,7.26,7.26,0,0,1,4-1.31,6.27,6.27,0,0,1,3.49.28,3.33,3.33,0,0,1,1.31,2.38,4.35,4.35,0,0,1,.88-2.38,3.27,3.27,0,0,1,1.22-.85,19.24,19.24,0,0,1,3.21-.48l5.76-.6L44,270.8l-7.25.75a5,5,0,0,0-2.14.51c-.26.21-.35.71-.27,1.49l9.84-1,.59,5.67Zm3.15-6.07,4.85-.5a2.46,2.46,0,0,0-.4-1.31q-.3-.36-1.74-.21l-1.2.12a1.82,1.82,0,0,0-1.33.52A2.09,2.09,0,0,0,26.06,274.4Z"/></svg>