<svg xmlns="http://www.w3.org/2000/svg" viewBox="0 0 500 500"><defs><style>.cls-1{isolation:isolate;}.cls-2{fill:#fff;}.cls-3,.cls-4{fill:#8fdaff;}.cls-4,.cls-8{opacity:0.7;mix-blend-mode:multiply;}.cls-5{fill:#34b1ed;}.cls-6{opacity:0.05;}.cls-7{fill:#1d1d1b;}.cls-8{fill:#45ecff;}</style></defs><g class="cls-1"><g id="Layer_2" data-name="Layer 2"><rect class="cls-2" x="-7.5" y="-6.95" width="518" height="518"/><circle class="cls-3" cx="187.41" cy="192.4" r="10.25"/><path class="cls-2" d="M183.62,192.05c0,1.86-1.07,3.36-2.39,3.36s-2.38-1.5-2.38-3.36,1.06-3.37,2.38-3.37S183.62,190.19,183.62,192.05Z"/><circle class="cls-3" cx="189.58" cy="251.01" r="5.89"/><path class="cls-2" d="M187.41,250.81c0,1.07-.62,1.94-1.38,1.94s-1.37-.87-1.37-1.94.62-1.94,1.37-1.94S187.41,249.74,187.41,250.81Z"/><path class="cls-3" d="M351,213.51a5.89,5.89,0,1,1-5.89-5.89A5.88,5.88,0,0,1,351,213.51Z"/><path class="cls-2" d="M342.94,213.31c0,1.07-.62,1.94-1.38,1.94s-1.37-.87-1.37-1.94.62-1.93,1.37-1.93S342.94,212.24,342.94,213.31Z"/><polygon class="cls-4" points="141.86 113.78 145.5 163.45 164.7 426.21 358.21 426.21 377.42 163.45 381.05 113.78 141.86 113.78"/><path class="cls-5" d="M155.58,171.73l17.92,245c57.17-24.55,115.88-23.38,175.92,0l17.91-245Z"/><circle class="cls-3" cx="266.64" cy="254.73" r="10.25"/><path class="cls-2" d="M262.85,254.38c0,1.86-1.07,3.37-2.39,3.37s-2.39-1.51-2.39-3.37,1.07-3.37,2.39-3.37S262.85,252.52,262.85,254.38Z"/><circle class="cls-3" cx="306.67" cy="286.09" r="10.25"/><path class="cls-2" d="M302.89,285.74c0,1.86-1.07,3.37-2.39,3.37s-2.39-1.51-2.39-3.37,1.07-3.37,2.39-3.37S302.89,283.88,302.89,285.74Z"/><circle class="cls-3" cx="245.41" cy="198.58" r="10.25"/><path class="cls-2" d="M241.63,198.23c0,1.86-1.07,3.37-2.39,3.37s-2.39-1.51-2.39-3.37,1.07-3.37,2.39-3.37S241.63,196.37,241.63,198.23Z"/><path class="cls-3" d="M266.64,308.67a7.72,7.72,0,1,1-7.72-7.72A7.72,7.72,0,0,1,266.64,308.67Z"/><path class="cls-2" d="M256.07,308.41c0,1.4-.8,2.53-1.79,2.53s-1.8-1.13-1.8-2.53.8-2.54,1.8-2.54S256.07,307,256.07,308.41Z"/><path class="cls-3" d="M321.14,328.14a7.71,7.71,0,1,1-7.71-7.71A7.72,7.72,0,0,1,321.14,328.14Z"/><ellipse class="cls-2" cx="308.78" cy="327.88" rx="1.8" ry="2.53"/><path class="cls-3" d="M220.63,325.35a7.72,7.72,0,1,1-7.71-7.72A7.71,7.71,0,0,1,220.63,325.35Z"/><path class="cls-2" d="M210.07,325.08c0,1.4-.81,2.54-1.8,2.54s-1.8-1.14-1.8-2.54.81-2.53,1.8-2.53S210.07,323.68,210.07,325.08Z"/><circle class="cls-3" cx="283.97" cy="211.58" r="7.71"/><path class="cls-2" d="M281.12,211.32c0,1.4-.8,2.53-1.79,2.53s-1.8-1.13-1.8-2.53.8-2.54,1.8-2.54S281.12,209.92,281.12,211.32Z"/><path class="cls-3" d="M323.41,189.33a7.72,7.72,0,1,1-7.71-7.71A7.72,7.72,0,0,1,323.41,189.33Z"/><path class="cls-2" d="M312.85,189.07c0,1.4-.81,2.54-1.8,2.54s-1.8-1.14-1.8-2.54.81-2.53,1.8-2.53S312.85,187.67,312.85,189.07Z"/><path class="cls-3" d="M229.32,231.75A7.72,7.72,0,1,1,221.6,224,7.72,7.72,0,0,1,229.32,231.75Z"/><path class="cls-2" d="M218.75,231.48c0,1.4-.8,2.54-1.79,2.54s-1.8-1.14-1.8-2.54S216,229,217,229,218.75,230.08,218.75,231.48Z"/><path class="cls-3" d="M224.7,274.8a5.89,5.89,0,1,1-5.89-5.89A5.9,5.9,0,0,1,224.7,274.8Z"/><path class="cls-2" d="M216.63,274.6c0,1.07-.61,1.94-1.37,1.94s-1.37-.87-1.37-1.94.61-1.93,1.37-1.93S216.63,273.53,216.63,274.6Z"/><path class="cls-3" d="M335.19,252.1a5.89,5.89,0,1,1-5.89-5.89A5.88,5.88,0,0,1,335.19,252.1Z"/><path class="cls-2" d="M327.13,251.9c0,1.07-.62,1.94-1.38,1.94s-1.37-.87-1.37-1.94S325,250,325.75,250,327.13,250.83,327.13,251.9Z"/><path class="cls-2" d="M194.53,126.27H161.22l20.69,274.78c8.7-3.6,11.51-4.81,20.27-7.2Z"/><g class="cls-6"><path class="cls-7" d="M163.4,408.46l1.3,17.75H358.21l10.23-139.95C341.58,359.62,235.16,409.07,163.4,408.46Z"/><path class="cls-8" d="M163.4,408.46l1.3,17.75H358.21l10.23-139.95C341.58,359.62,235.16,409.07,163.4,408.46Z"/></g></g></g></svg>